<svg width="18" height="18" viewBox="0 0 18 18" fill="none" xmlns="http://www.w3.org/2000/svg">
<rect width="18" height="18" rx="9" fill="url(#paint0_linear_141_8272)"/>
<path fill-rule="evenodd" clip-rule="evenodd" d="M9.85799 5.63058C9.16451 5.43565 8.42778 5.45945 7.74832 5.69872C7.06887 5.93799 6.4798 6.38109 6.06148 6.96754C5.64317 7.55399 5.416 8.25523 5.41097 8.97557C5.40594 9.6959 5.6233 10.4002 6.03338 10.9925C6.44347 11.5847 7.0263 12.036 7.70234 12.2847C8.37839 12.5335 9.11472 12.5675 9.81085 12.3823C10.507 12.1971 11.129 11.8016 11.592 11.2498C12.0358 10.7209 12.8242 10.6519 13.3531 11.0957C13.8819 11.5394 13.9509 12.3279 13.5072 12.8567C12.7134 13.8027 11.6471 14.4807 10.4537 14.7983C9.26032 15.1158 7.99804 15.0574 6.8391 14.631C5.68016 14.2046 4.68102 13.4309 3.97802 12.4157C3.27503 11.4004 2.90241 10.193 2.91103 8.95811C2.91966 7.72325 3.30909 6.52113 4.0262 5.51578C4.7433 4.51044 5.75314 3.75085 6.91792 3.34066C8.0827 2.93048 9.34567 2.88969 10.5345 3.22385C11.7233 3.55801 12.7801 4.25085 13.5606 5.20782C13.9969 5.74281 13.9169 6.53022 13.3819 6.96654C12.8469 7.40287 12.0595 7.32289 11.6232 6.7879C11.1679 6.22966 10.5515 5.82551 9.85799 5.63058Z" fill="white"/>
<path d="M7.87288 6.05243C8.47954 5.83879 9.13734 5.81755 9.75652 5.99159C10.3757 6.16563 10.9261 6.52649 11.3326 7.02491C11.8998 7.72039 12.9234 7.82437 13.6189 7.25715C14.3144 6.68992 14.4184 5.6663 13.8512 4.97081C13.0219 3.95403 11.8991 3.21789 10.636 2.86284C9.37284 2.50779 8.03094 2.55114 6.79336 2.98696C5.55578 3.42278 4.48283 4.22984 3.7209 5.29802C2.95898 6.3662 2.5452 7.64345 2.53604 8.95549C2.52688 10.2675 2.92278 11.5504 3.66972 12.6292C4.41666 13.7079 5.47824 14.5298 6.70961 14.9829C7.94098 15.4359 9.28215 15.498 10.5501 15.1606C11.8181 14.8233 12.951 14.1029 13.7944 13.0978C14.3713 12.4103 14.2816 11.3853 13.5941 10.8084C12.9066 10.2315 11.8817 10.3212 11.3048 11.0087C10.8914 11.5014 10.336 11.8545 9.71443 12.0199C9.09288 12.1853 8.43544 12.1549 7.83183 11.9328C7.22822 11.7107 6.70783 11.3078 6.34169 10.779C5.97554 10.2502 5.78147 9.62134 5.78596 8.97818C5.79045 8.33503 5.99329 7.70892 6.36678 7.1853C6.74027 6.66169 7.26623 6.26607 7.87288 6.05243Z" stroke="#661E1E" stroke-opacity="0.3" stroke-width="0.75" stroke-linecap="round" stroke-linejoin="round"/>
<defs>
<linearGradient id="paint0_linear_141_8272" x1="9" y1="0" x2="9" y2="18" gradientUnits="userSpaceOnUse">
<stop stop-color="#FFCC00"/>
<stop offset="1" stop-color="#FFB800"/>
</linearGradient>
</defs>
</svg>
