<svg width="30" height="30" viewBox="0 0 30 30" fill="none" xmlns="http://www.w3.org/2000/svg">
<path d="M3 1.5H1.5V3V17C1.5 23.3513 6.64873 28.5 13 28.5H27H28.5V27V13C28.5 6.64873 23.3513 1.5 17 1.5H3Z" fill="#3E8CF7" stroke="white" stroke-width="3"/>
<path d="M17.2008 13.5502L18.2215 7.30771C18.2372 7.21169 18.1204 7.15207 18.0519 7.2211L9.16935 16.1625C9.10668 16.2256 9.15137 16.333 9.2403 16.333H12.7005C12.7622 16.333 12.8091 16.3883 12.7992 16.4491L11.7769 22.6915C11.7612 22.7875 11.8779 22.8472 11.9465 22.7781L20.8306 13.8368C20.8933 13.7737 20.8486 13.6663 20.7597 13.6663H17.2995C17.2378 13.6663 17.1909 13.611 17.2008 13.5502Z" stroke="white" stroke-width="2"/>
</svg>
