<svg xmlns="http://www.w3.org/2000/svg" fill="none" viewBox="0 0 62 59"><path fill="#DF8810" fill-rule="evenodd" d="M44.537 8.593c1.261 2.173 16.92 28.779 16.92 28.779a3.893 3.893 0 0 1-1.424 5.317s-23.79 13.81-25.965 14.893c-2.175 1.084-13.133 1.861-14.466-.17-1.087-1.659-10.408-17.242-7.953-17.596L6.271 27.614a4.507 4.507 0 0 1 1.65-6.157l14.726-8.713c-3.315-.923 8.91-13.426 13.73-12.148 4.386 1.163 6.897 5.824 8.16 7.997Z" clip-rule="evenodd"/><mask id="a" width="57" height="59" x="5" y="0" maskUnits="userSpaceOnUse" style="mask-type:alpha"><path fill="#DF8810" fill-rule="evenodd" d="M44.537 8.593c1.261 2.173 16.92 28.779 16.92 28.779a3.893 3.893 0 0 1-1.424 5.317S36.243 56.49 34.068 57.582c-2.175 1.09-13.133 1.861-14.466-.17-1.087-1.659-10.408-17.242-7.953-17.596L6.271 27.614a4.507 4.507 0 0 1 1.65-6.157l14.726-8.713c-3.315-.923 8.91-13.426 13.73-12.148 4.386 1.163 6.897 5.824 8.16 7.997Z" clip-rule="evenodd"/></mask><g mask="url(#a)"><g filter="url(#b)" opacity=".7"><path fill="#FBF666" d="M41.622 4.734c-2.538-4.442-5.076-7.191-12.69-6.557l11.844-10.363L72.5 44.707 26.394 65.011l-12.902-5.71c1.904.352 11.421-.212 17.766-1.904 6.345-1.692 23.9-11.421 28.341-13.959 4.442-2.538.423-7.191-1.48-10.364-1.904-3.172-13.96-23.899-16.497-28.34Z"/></g><g filter="url(#c)" opacity=".5"><path fill="#FBF666" d="M40.142 3.888c-2.538-4.442-5.076-7.191-12.69-6.557l11.844-10.363L71.02 43.86s-3.596-3.807-6.134-4.23c-2.538-.423-6.345-4.23-8.248-7.402-1.904-3.173-13.96-23.9-16.497-28.341Z"/></g><g filter="url(#d)"><path fill="#D14C04" fill-rule="evenodd" d="M5.78 57.271c6.983 0 17.434 3.384 23.575-.423 6.141-3.807 19.549-11.294 23.934-13.959 4.385-2.665 6.992-3.857 1.68-13.113-3.144-5.476-9.96-16.827-15.687-26.22-3.953-6.482-21.684 3.378-21.684 3.378L.803 11.164s-2.01 46.107 4.976 46.107Z" clip-rule="evenodd"/></g><g filter="url(#e)"><path fill="#CA420C" fill-rule="evenodd" d="M13.281 57.271c7.036 0 9.041 2.961 15.228-.846 6.187-3.807 19.694-11.294 24.111-13.959 4.417-2.665 7.044-3.857 1.692-13.113-3.166-5.476-10.033-16.827-15.803-26.22-3.982-6.482-21.844 3.378-21.844 3.378l-16.92 4.23s6.499 46.53 13.536 46.53Z" clip-rule="evenodd"/></g><g filter="url(#f)"><path fill="#fff" fill-opacity=".01" fill-rule="evenodd" d="M44.537 8.593c1.261 2.173 16.92 28.779 16.92 28.779a3.893 3.893 0 0 1-1.424 5.317s-23.79 13.81-25.965 14.893c-2.175 1.084-11.058 5.737-14.019 5.314-1.087-1.659-10.855-22.726-8.4-23.08L6.271 27.614a4.507 4.507 0 0 1 1.65-6.157l14.726-8.713c-3.315-.923 8.91-13.426 13.73-12.148 4.386 1.163 6.897 5.824 8.16 7.997Z" clip-rule="evenodd" style="mix-blend-mode:multiply"/></g><g filter="url(#g)"><path fill="url(#h)" d="M58.277 37.826c1.055 1.098 3.698 3.323 4.888 4.299 1.26.484 2.717 2.107-1.531 4.721-5.311 3.268-6.693.927-6.145-.082.547-1.009 2.496-4.055 2.014-6.698-.372-2.045-.544-3.612.774-2.24Z"/></g></g><path fill="url(#i)" fill-rule="evenodd" d="m38.468 3.516 17.44 30.207a4.337 4.337 0 0 1-1.585 5.925L24.113 57.09a4.337 4.337 0 0 1-5.924-1.588L.75 25.293a4.337 4.337 0 0 1 1.587-5.924L32.543 1.931a4.337 4.337 0 0 1 5.925 1.585Z" clip-rule="evenodd"/><mask id="k" width="55" height="55" x="1" y="2" maskUnits="userSpaceOnUse" style="mask-type:alpha"><path fill="url(#j)" d="M37.195 3.648c.52.399.955.896 1.282 1.463L54.49 32.847a4.985 4.985 0 0 1-1.823 6.81L24.93 55.67a4.984 4.984 0 0 1-6.81-1.824L2.106 26.109A4.984 4.984 0 0 1 3.93 19.3L31.668 3.287a4.982 4.982 0 0 1 5.527.361Z"/></mask><g mask="url(#k)"><g filter="url(#l)" style="mix-blend-mode:multiply"><path fill="#E4B296" d="M12.435 19.96c-4.978 3.215-2.538 6.98-1.057 12.479 6.345-3.384 4.653-4.23 5.287-7.826.635-3.595 6.768-2.326 6.768 1.058 0 3.384-2.538 4.018-2.538 6.133s-1.903 3.596-4.23 5.288c-1.861 1.353-.775 4.37 0 5.71l13.96-8.671-3.385-8.46 14.382-7.403c-.07.635-1.057 2.496-4.441 4.865-4.23 2.96-4.442 6.556-3.807 10.363.634 3.807-4.442 7.826-8.883 10.998-4.442 3.173-2.75 8.249 4.018 7.826 6.768-.423 18.612-2.961 26.86-9.518 8.25-6.556-5.921-2.96-11.843-3.384-5.922-.423-6.98-3.807-5.076-3.172 1.903.634 5.282.514 6.133-3.173.33-1.433-6.98-2.96-4.441-4.653 2.538-1.692 4.23-.211 5.499-.846 1.269-.634-.846-6.98 1.903-4.441 2.75 2.538 19.247 17.343 19.247 17.343L23.433 71.778-4.062 20.595l23.054-14.17c4.935-.424 10.454-4.971 8.248.422-1.903 4.653-4.653 6.557-14.805 13.113Z"/></g><g filter="url(#m)"><path fill="url(#n)" fill-rule="evenodd" d="M56.554 33.029 39.324 3.186a5.361 5.361 0 0 0-7.327-1.962L2.15 18.454a5.361 5.361 0 0 0-1.963 7.325L17.42 55.622a5.362 5.362 0 0 0 7.327 1.962l29.846-17.23a5.363 5.363 0 0 0 1.962-7.325Zm-41.031 7.803-2.45-4.243 4.72-2.75a2.856 2.856 0 0 0 1.33-1.741l.79-2.947a5.391 5.391 0 1 0-5.633-1.205l-.407 1.52-3.677 2.142-4.832-8.368L34.536 6.4l5.04 8.73-12.122 6.963a5.467 5.467 0 0 0-1.963 7.4l2.299 4.016-12.267 7.323Zm6.683 11.577L18.4 45.813l12.55-7.487a5.46 5.46 0 0 0 1.986-7.413l-2.3-4.019 11.82-6.786 3.875 6.712-2.45 1.414a5.39 5.39 0 1 0 2.983 4.92l2.343-1.353 2.174 3.765-29.174 16.843Z" clip-rule="evenodd"/></g><g filter="url(#o)" opacity=".35"><ellipse cx="28.739" cy="14.102" fill="#FFD74B" rx="2.931" ry="8.533" transform="rotate(55.445 28.74 14.102)"/></g></g><g filter="url(#p)"><path fill="url(#q)" fill-rule="evenodd" d="M56.554 33.029 39.324 3.186a5.361 5.361 0 0 0-7.327-1.963L2.15 18.453a5.361 5.361 0 0 0-1.963 7.326L17.42 55.62a5.362 5.362 0 0 0 7.327 1.963l29.846-17.23a5.363 5.363 0 0 0 1.962-7.325Zm-41.031 7.803-2.45-4.243 4.72-2.75a2.856 2.856 0 0 0 1.33-1.741l.79-2.947a5.39 5.39 0 1 0-5.633-1.206l-.407 1.521-3.677 2.141-4.832-8.367L34.536 6.4l5.04 8.73-12.122 6.963a5.467 5.467 0 0 0-1.963 7.4l2.299 4.016-12.267 7.323Zm6.683 11.576L18.4 45.813l12.55-7.487a5.46 5.46 0 0 0 1.986-7.414l-2.3-4.018 11.82-6.786 3.875 6.712-2.45 1.414a5.39 5.39 0 1 0 2.983 4.92l2.343-1.353 2.174 3.764-29.174 16.843Z" clip-rule="evenodd"/></g><mask id="s" width="59" height="59" x="-1" y="0" maskUnits="userSpaceOnUse" style="mask-type:alpha"><path fill="url(#r)" fill-rule="evenodd" d="M56.554 33.029 39.324 3.186a5.361 5.361 0 0 0-7.327-1.963L2.15 18.453a5.361 5.361 0 0 0-1.963 7.326L17.42 55.62a5.362 5.362 0 0 0 7.327 1.963l29.846-17.23a5.363 5.363 0 0 0 1.962-7.325Zm-41.031 7.803-2.45-4.243 4.72-2.75a2.856 2.856 0 0 0 1.33-1.741l.79-2.947a5.39 5.39 0 1 0-5.633-1.206l-.407 1.521-3.677 2.141-4.832-8.367L34.536 6.4l5.04 8.73-12.122 6.963a5.467 5.467 0 0 0-1.963 7.4l2.299 4.016-12.267 7.323Zm6.683 11.576L18.4 45.813l12.55-7.487a5.46 5.46 0 0 0 1.986-7.414l-2.3-4.018 11.82-6.786 3.875 6.712-2.45 1.414a5.39 5.39 0 1 0 2.983 4.92l2.343-1.353 2.174 3.764-29.174 16.843Z" clip-rule="evenodd"/></mask><g mask="url(#s)"><g fill="#FFC077" filter="url(#t)" style="mix-blend-mode:multiply"><path d="M15.543 23.134c-1.692 1.432-1.692 3.384-2.538 5.5-2.539-.424-7.191-5.077 3.172-10.364 4.71-2.403 5.71-.846 5.71-.846s-3.595 3.384-6.344 5.71Zm12.478 2.327c-2.75 4.23-2.75 6.345-2.75 6.768-.775-1.41-1.776-2.876-.422-6.768 1.692-4.864 9.094-9.095 10.363-9.095 3.172 0-4.076 4.304-7.19 9.095Zm7.825 4.864c1.079-2.157 4.514-3.646 5.71-2.749 1.186.889-.192 2.088-1.902 3.807-1.952 1.962-3.766 4.047-4.442 5.287-.212-.775-.634-3.806.634-6.345Z"/></g><g filter="url(#u)"><path fill="#FFFEF5" fill-rule="evenodd" d="M2.741 29.91C.593 25.246.803 21.513 5.588 18.072c4.784-3.44 7.693-5.938 11.816-8.975-.035-1.01-12.563 3.952-12.563 3.952s-5.167 3.108-9.548 5.473C-9.09 20.89-2.503 29.41-.137 31.856c2.365 2.446 5.026 2.716 2.878-1.947Zm10.963-2.124c.423-.423-.592-2.962 0-3.509.592-.546 7.8-6.203 7.8-6.203-1.642-1.48-4.072-.833-5.934.36-8.133 4.796-2.443 9.929-1.866 9.352Zm12.54 3.776c-.812-1.56-.39-3.739 1.693-6.73 2.082-2.992 11.4-8.044 11.782-8.256.382-.211.352-.312.211-.634-.048-.112-.423-.846-.423-.846s-2.471-2.31-3.87-1.659C34.24 14.087 25.01 19.172 24 25.904c-1.008 6.732 3.057 7.22 2.245 5.658Zm10.937 5.741c.908-.075-.846-3.172 0-4.23.846-1.057 6.768-5.922 6.768-5.922s-3.621-2.483-7.318 1.334c-5.009 5.17-.358 8.893.55 8.818Z" clip-rule="evenodd"/></g><g filter="url(#v)"><path fill="#FFF9BE" d="M5.179 17.21c-6.768 3.596-6.133 6.134-3.173 13.537 1.185 3.183 1.199 5.133 1.058 5.71l-6.556-15.44L12.58 10.655c-.211.987-1.988 3.68-7.402 6.557Z"/></g><g filter="url(#w)" style="mix-blend-mode:overlay"><path fill="#FFFFF5" d="M-2.096 21.1 36.546-1.175v-4.667l-45.26 25.245 23.697 44.55 5.912-5.71s-1.903-.516-2.968-2.353C16.863 54.053-2.096 21.1-2.096 21.1Z"/></g><g filter="url(#x)" opacity=".9"><path fill="url(#y)" d="M28.311 33.92c.21.423-.544 1-1.052 1.269-2.063 1.092-9.259 5.076-10.521 5.71-1.263.635-1.263-1.269-1.263-1.269s10.695-6.686 11.364-6.98c.668-.293 1.262.847 1.473 1.27Z"/><path fill="url(#z)" d="M14.213 30.324c-.337.17-2.385 1.34-3.367 1.904a12.646 12.646 0 0 1-.618-1.03c1.328-1.349 4.069-3.92 4.405-3.412.421.635.421.846.21 1.48-.148.45-.21.847-.63 1.058Z"/><path fill="url(#A)" d="m22.84 53.166-.631-1.269 28.83-16.92.84 1.48-29.039 16.71Z"/></g></g><g filter="url(#B)"><path fill="url(#C)" fill-rule="evenodd" d="M26.166 55.984c3.884-2.006 24.746-13.94 28.155-16.069.841-.526 2.653-1.811 2.852-4.303.828 2.473-.072 7.29-12.59 14.594-12.517 7.304-18.192 8.18-22.419 7.273 1.93-.173 3.425-1.197 4.002-1.495Z" clip-rule="evenodd"/></g><defs><filter id="b" width="61.547" height="79.735" x="12.223" y="-13.455" color-interpolation-filters="sRGB" filterUnits="userSpaceOnUse"><feFlood flood-opacity="0" result="BackgroundImageFix"/><feBlend in="SourceGraphic" in2="BackgroundImageFix" result="shape"/><feGaussianBlur result="effect1_foregroundBlur_150_16965" stdDeviation=".634"/></filter><filter id="c" width="44.838" height="58.162" x="26.817" y="-13.667" color-interpolation-filters="sRGB" filterUnits="userSpaceOnUse"><feFlood flood-opacity="0" result="BackgroundImageFix"/><feBlend in="SourceGraphic" in2="BackgroundImageFix" result="shape"/><feGaussianBlur result="effect1_foregroundBlur_150_16965" stdDeviation=".317"/></filter><filter id="d" width="61.631" height="61.538" x="-1.58" y="-.766" color-interpolation-filters="sRGB" filterUnits="userSpaceOnUse"><feFlood flood-opacity="0" result="BackgroundImageFix"/><feBlend in="SourceGraphic" in2="BackgroundImageFix" result="shape"/><feGaussianBlur result="effect1_foregroundBlur_150_16965" stdDeviation="1.058"/></filter><filter id="e" width="59.248" height="59.134" x="-1.101" y=".08" color-interpolation-filters="sRGB" filterUnits="userSpaceOnUse"><feFlood flood-opacity="0" result="BackgroundImageFix"/><feBlend in="SourceGraphic" in2="BackgroundImageFix" result="shape"/><feGaussianBlur result="effect1_foregroundBlur_150_16965" stdDeviation=".423"/></filter><filter id="f" width="57.157" height="64.534" x="4.821" y="-1.611" color-interpolation-filters="sRGB" filterUnits="userSpaceOnUse"><feFlood flood-opacity="0" result="BackgroundImageFix"/><feBlend in="SourceGraphic" in2="BackgroundImageFix" result="shape"/><feColorMatrix in="SourceAlpha" result="hardAlpha" values="0 0 0 0 0 0 0 0 0 0 0 0 0 0 0 0 0 0 127 0"/><feOffset dx="-.846" dy="-2.115"/><feGaussianBlur stdDeviation="1.058"/><feComposite in2="hardAlpha" k2="-1" k3="1" operator="arithmetic"/><feColorMatrix values="0 0 0 0 0.988235 0 0 0 0 0.709804 0 0 0 0 0.396078 0 0 0 1 0"/><feBlend in2="shape" mode="overlay" result="effect1_innerShadow_150_16965"/><feColorMatrix in="SourceAlpha" result="hardAlpha" values="0 0 0 0 0 0 0 0 0 0 0 0 0 0 0 0 0 0 127 0"/><feOffset dx="-.423" dy="-.423"/><feGaussianBlur stdDeviation=".634"/><feComposite in2="hardAlpha" k2="-1" k3="1" operator="arithmetic"/><feColorMatrix values="0 0 0 0 0.992157 0 0 0 0 0.819608 0 0 0 0 0.627451 0 0 0 1 0"/><feBlend in2="effect1_innerShadow_150_16965" mode="overlay" result="effect2_innerShadow_150_16965"/></filter><filter id="g" width="10.356" height="12.483" x="54.743" y="36.674" color-interpolation-filters="sRGB" filterUnits="userSpaceOnUse"><feFlood flood-opacity="0" result="BackgroundImageFix"/><feBlend in="SourceGraphic" in2="BackgroundImageFix" result="shape"/><feGaussianBlur result="effect1_foregroundBlur_150_16965" stdDeviation=".317"/></filter><filter id="l" width="79.313" height="76.007" x="-8.292" y=".001" color-interpolation-filters="sRGB" filterUnits="userSpaceOnUse"><feFlood flood-opacity="0" result="BackgroundImageFix"/><feBlend in="SourceGraphic" in2="BackgroundImageFix" result="shape"/><feGaussianBlur result="effect1_foregroundBlur_150_16965" stdDeviation="2.115"/></filter><filter id="m" width="63.726" height="63.722" x="-1.8" y="-.765" color-interpolation-filters="sRGB" filterUnits="userSpaceOnUse"><feFlood flood-opacity="0" result="BackgroundImageFix"/><feColorMatrix in="SourceAlpha" result="hardAlpha" values="0 0 0 0 0 0 0 0 0 0 0 0 0 0 0 0 0 0 127 0"/><feOffset dx="1.269" dy=".846"/><feGaussianBlur stdDeviation=".211"/><feComposite in2="hardAlpha" operator="out"/><feColorMatrix values="0 0 0 0 0.92549 0 0 0 0 0.509804 0 0 0 0 0.109804 0 0 0 0.35 0"/><feBlend in2="BackgroundImageFix" mode="multiply" result="effect1_dropShadow_150_16965"/><feColorMatrix in="SourceAlpha" result="hardAlpha" values="0 0 0 0 0 0 0 0 0 0 0 0 0 0 0 0 0 0 127 0"/><feOffset dx="1.692" dy="1.692"/><feGaussianBlur stdDeviation="1.48"/><feComposite in2="hardAlpha" operator="out"/><feColorMatrix values="0 0 0 0 0.988235 0 0 0 0 0.572549 0 0 0 0 0.32549 0 0 0 1 0"/><feBlend in2="effect1_dropShadow_150_16965" mode="multiply" result="effect2_dropShadow_150_16965"/><feColorMatrix in="SourceAlpha" result="hardAlpha" values="0 0 0 0 0 0 0 0 0 0 0 0 0 0 0 0 0 0 127 0"/><feOffset dx=".423" dy=".423"/><feGaussianBlur stdDeviation=".423"/><feComposite in2="hardAlpha" operator="out"/><feColorMatrix values="0 0 0 0 0.619608 0 0 0 0 0.321569 0 0 0 0 0.14902 0 0 0 0.69 0"/><feBlend in2="effect2_dropShadow_150_16965" mode="multiply" result="effect3_dropShadow_150_16965"/><feBlend in="SourceGraphic" in2="effect3_dropShadow_150_16965" result="shape"/></filter><filter id="o" width="18.676" height="15.049" x="19.402" y="6.577" color-interpolation-filters="sRGB" filterUnits="userSpaceOnUse"><feFlood flood-opacity="0" result="BackgroundImageFix"/><feBlend in="SourceGraphic" in2="BackgroundImageFix" result="shape"/><feGaussianBlur result="effect1_foregroundBlur_150_16965" stdDeviation="1.058"/></filter><filter id="p" width="59.919" height="59.492" x="-1.8" y="-.765" color-interpolation-filters="sRGB" filterUnits="userSpaceOnUse"><feFlood flood-opacity="0" result="BackgroundImageFix"/><feBlend in="SourceGraphic" in2="BackgroundImageFix" result="shape"/><feColorMatrix in="SourceAlpha" result="hardAlpha" values="0 0 0 0 0 0 0 0 0 0 0 0 0 0 0 0 0 0 127 0"/><feOffset dx="-.846" dy="-1.269"/><feGaussianBlur stdDeviation=".211"/><feComposite in2="hardAlpha" k2="-1" k3="1" operator="arithmetic"/><feColorMatrix values="0 0 0 0 0.619608 0 0 0 0 0.321569 0 0 0 0 0.14902 0 0 0 0.69 0"/><feBlend in2="shape" mode="multiply" result="effect1_innerShadow_150_16965"/><feColorMatrix in="SourceAlpha" result="hardAlpha" values="0 0 0 0 0 0 0 0 0 0 0 0 0 0 0 0 0 0 127 0"/><feOffset dx="-1.269" dy="-1.269"/><feGaussianBlur stdDeviation="1.058"/><feComposite in2="hardAlpha" k2="-1" k3="1" operator="arithmetic"/><feColorMatrix values="0 0 0 0 0.988235 0 0 0 0 0.572549 0 0 0 0 0.32549 0 0 0 1 0"/><feBlend in2="effect1_innerShadow_150_16965" mode="multiply" result="effect2_innerShadow_150_16965"/><feColorMatrix in="SourceAlpha" result="hardAlpha" values="0 0 0 0 0 0 0 0 0 0 0 0 0 0 0 0 0 0 127 0"/><feOffset dx="-.846" dy="-1.692"/><feGaussianBlur stdDeviation=".211"/><feComposite in2="hardAlpha" k2="-1" k3="1" operator="arithmetic"/><feColorMatrix values="0 0 0 0 0.916667 0 0 0 0 0.405778 0 0 0 0 0.118403 0 0 0 0.35 0"/><feBlend in2="effect2_innerShadow_150_16965" result="effect3_innerShadow_150_16965"/><feColorMatrix in="SourceAlpha" result="hardAlpha" values="0 0 0 0 0 0 0 0 0 0 0 0 0 0 0 0 0 0 127 0"/><feOffset dx="1.058" dy=".423"/><feGaussianBlur stdDeviation=".423"/><feComposite in2="hardAlpha" k2="-1" k3="1" operator="arithmetic"/><feColorMatrix values="0 0 0 0 1 0 0 0 0 1 0 0 0 0 1 0 0 0 1 0"/><feBlend in2="effect3_innerShadow_150_16965" mode="overlay" result="effect4_innerShadow_150_16965"/></filter><filter id="t" width="40.723" height="28.764" x="5.507" y="12.136" color-interpolation-filters="sRGB" filterUnits="userSpaceOnUse"><feFlood flood-opacity="0" result="BackgroundImageFix"/><feBlend in="SourceGraphic" in2="BackgroundImageFix" result="shape"/><feGaussianBlur result="effect1_foregroundBlur_150_16965" stdDeviation="2.115"/></filter><filter id="u" width="50.548" height="28.765" x="-6.388" y="8.751" color-interpolation-filters="sRGB" filterUnits="userSpaceOnUse"><feFlood flood-opacity="0" result="BackgroundImageFix"/><feBlend in="SourceGraphic" in2="BackgroundImageFix" result="shape"/><feGaussianBlur result="effect1_foregroundBlur_150_16965" stdDeviation=".106"/></filter><filter id="v" width="18.612" height="28.341" x="-4.761" y="9.385" color-interpolation-filters="sRGB" filterUnits="userSpaceOnUse"><feFlood flood-opacity="0" result="BackgroundImageFix"/><feBlend in="SourceGraphic" in2="BackgroundImageFix" result="shape"/><feGaussianBlur result="effect1_foregroundBlur_150_16965" stdDeviation=".634"/></filter><filter id="w" width="45.895" height="70.429" x="-9.032" y="-6.159" color-interpolation-filters="sRGB" filterUnits="userSpaceOnUse"><feFlood flood-opacity="0" result="BackgroundImageFix"/><feBlend in="SourceGraphic" in2="BackgroundImageFix" result="shape"/><feGaussianBlur result="effect1_foregroundBlur_150_16965" stdDeviation=".159"/></filter><filter id="x" width="42.286" height="26.08" x="9.911" y="27.404" color-interpolation-filters="sRGB" filterUnits="userSpaceOnUse"><feFlood flood-opacity="0" result="BackgroundImageFix"/><feBlend in="SourceGraphic" in2="BackgroundImageFix" result="shape"/><feGaussianBlur result="effect1_foregroundBlur_150_16965" stdDeviation=".159"/></filter><filter id="B" width="37.348" height="24.275" x="21.107" y="34.555" color-interpolation-filters="sRGB" filterUnits="userSpaceOnUse"><feFlood flood-opacity="0" result="BackgroundImageFix"/><feBlend in="SourceGraphic" in2="BackgroundImageFix" result="shape"/><feGaussianBlur result="effect1_foregroundBlur_150_16965" stdDeviation=".529"/></filter><linearGradient id="j" x1="7.198" x2="28.232" y1="17.361" y2="53.726" gradientUnits="userSpaceOnUse"><stop stop-color="#FDED5F"/><stop offset="1" stop-color="#FB9E09"/></linearGradient><linearGradient id="n" x1="5.667" x2="28.298" y1="16.367" y2="55.494" gradientUnits="userSpaceOnUse"><stop stop-color="#FDED5F"/><stop offset="1" stop-color="#FB9E09"/></linearGradient><linearGradient id="q" x1="5.667" x2="28.298" y1="16.366" y2="55.494" gradientUnits="userSpaceOnUse"><stop stop-color="#FDED5F"/><stop offset=".469" stop-color="#FDE34F"/><stop offset=".873" stop-color="#FBAC18"/><stop offset="1" stop-color="#FB9107"/></linearGradient><linearGradient id="r" x1="5.667" x2="28.298" y1="16.366" y2="55.494" gradientUnits="userSpaceOnUse"><stop stop-color="#FDED5F"/><stop offset="1" stop-color="#FB9E09"/></linearGradient><linearGradient id="y" x1="31.258" x2="22.387" y1="47.033" y2="53.757" gradientUnits="userSpaceOnUse"><stop stop-color="#FFFEF5"/><stop offset="1" stop-color="#FFFEF5" stop-opacity="0"/></linearGradient><linearGradient id="z" x1="31.258" x2="22.387" y1="47.033" y2="53.757" gradientUnits="userSpaceOnUse"><stop stop-color="#FFFEF5"/><stop offset="1" stop-color="#FFFEF5" stop-opacity="0"/></linearGradient><linearGradient id="A" x1="31.258" x2="22.387" y1="47.033" y2="53.757" gradientUnits="userSpaceOnUse"><stop stop-color="#FFFEF5"/><stop offset="1" stop-color="#FFFEF5" stop-opacity="0"/></linearGradient><radialGradient id="h" cx="0" cy="0" r="1" gradientTransform="rotate(-111.992 44.364 1.233) scale(5.87582 2.8479)" gradientUnits="userSpaceOnUse"><stop offset=".25" stop-color="#fff" stop-opacity=".68"/><stop offset="1" stop-color="#fff" stop-opacity="0"/></radialGradient><radialGradient id="i" cx="0" cy="0" r="1" gradientTransform="matrix(-6.13349 37.22397 -37.22367 -6.13344 27.663 16.789)" gradientUnits="userSpaceOnUse"><stop stop-color="#FFC738"/><stop offset=".221" stop-color="#F9B733"/><stop offset="1" stop-color="#EA5B0A"/></radialGradient><radialGradient id="C" cx="0" cy="0" r="1" gradientTransform="matrix(2.67781 4.97621 -20.73345 11.15714 39.79 46.71)" gradientUnits="userSpaceOnUse"><stop stop-color="#BB2003"/><stop offset=".535" stop-color="#BB2003" stop-opacity=".69"/><stop offset=".789" stop-color="#BB2003" stop-opacity=".219"/><stop offset="1" stop-color="#BB2003" stop-opacity="0"/></radialGradient></defs></svg>