<svg xmlns="http://www.w3.org/2000/svg" viewBox="0 0 238.10666666666668 46.880"><svg xmlns="http://www.w3.org/2000/svg" width="120.12" height="46.88" x="0.000"><path fill="#fff" d="m19.12 22.76 5.92-13.44h-4.92L14.2 22.76Zm-3.16 14.36V32.4c0-3.56-.44-4.6-1.8-7.56L7.04 9.32H2l9.12 19.84v7.96Zm53.72.4c2.24 0 4.08-1.04 5.36-3l.24 2.6h4.4V9.32h-4.76v10.04c-1.2-1.8-2.96-2.76-5.04-2.76-4.6 0-7.8 3.88-7.8 10.6 0 6.64 3.12 10.32 7.6 10.32m29.24-1.76v-3.88c-1.48 1-3.96 1.88-6.28 1.88-3.48 0-4.8-1.64-5-5h11.48v-2.52c0-7-3.08-9.64-7.84-9.64-5.8 0-8.56 4.44-8.56 10.52 0 7 3.44 10.4 9.52 10.4 3.04 0 5.28-.8 6.68-1.76M47.68 22.68c.88-1.08 2.28-2 4-2 1.68 0 2.44.72 2.44 2.24v14.2h4.76V22.44c0-4-1.6-5.76-5.48-5.76-2.84 0-4.52 1.04-5.48 2h-.24L47.56 17h-4.64v20.12h4.76Zm-8.64.72c0-4.88-2.48-6.72-7.52-6.72-3.16 0-5.64 1-7.08 1.84v3.96c1.28-.96 4.08-2 6.52-2 2.28 0 3.32.8 3.32 2.96v1.12h-.76c-7.28 0-10.52 2.4-10.52 6.48s2.48 6.36 6.16 6.36c2.8 0 4-.92 4.92-1.88h.2c.04.52.2 1.2.36 1.6h4.64a50.64 50.64 0 0 1-.24-4.92Zm74.52 13.72h5.36l-6.56-10.36 5.68-9.76h-4.76l-3.44 6.08L106 17h-5.36l6.08 9.64-6.32 10.48h4.84l4.04-6.8ZM71.08 20.36c2.56 0 3.84 2.04 3.84 6.68 0 4.68-1.36 6.72-4.04 6.72-2.6 0-3.88-2-3.88-6.56 0-4.76 1.36-6.84 4.08-6.84m20.12 0c2.36 0 3.08 1.96 3.08 4.48v.4h-6.64c.12-3.2 1.28-4.88 3.56-4.88M34.28 32.32c-.6.88-1.72 1.6-3.4 1.6-2 0-3-1.12-3-2.84 0-2.28 1.64-3.12 5.72-3.12h.68Z"/></svg><svg xmlns="http://www.w3.org/2000/svg" width="107.32" height="46.88" x="130.787"><path fill="#fff" d="M11.68 33.76c-3.8 0-5.56-3.56-5.56-10.52 0-7.16 2.12-10.56 7.12-10.56 2.52 0 4.88.88 6.48 1.88v-3.88c-1.36-1-3.84-1.76-6.72-1.76-7.64 0-11.8 5.44-11.8 14.32 0 9.12 3.8 14.28 10.36 14.28 6.36 0 9.72-4.08 9.72-11.12v-4.48h-9.92v3.76h5.08v.84c0 4.44-1.16 7.24-4.76 7.24M39.52 23.4c0-4.88-2.48-6.72-7.52-6.72-3.16 0-5.64 1-7.08 1.84v3.96c1.28-.96 4.08-2 6.52-2 2.28 0 3.32.8 3.32 2.96v1.12H34c-7.28 0-10.52 2.4-10.52 6.48s2.48 6.36 6.16 6.36c2.8 0 4-.92 4.92-1.88h.2c.04.52.2 1.2.36 1.6h4.64a50.64 50.64 0 0 1-.24-4.92Zm-4.76 8.92c-.6.88-1.72 1.6-3.4 1.6-2 0-3-1.12-3-2.84 0-2.28 1.64-3.12 5.72-3.12h.68Zm13.36-9.64c.88-1.08 2.08-2 3.8-2 1.68 0 2.24.72 2.24 2.24v14.2h4.76V22.68c.88-1.08 2.08-2 3.8-2 1.68 0 2.24.72 2.24 2.24v14.2h4.76V22.44c0-4-1.4-5.76-5.28-5.76-3.08 0-4.92 1.2-6.04 2.56-.76-1.76-2.36-2.56-4.96-2.56-2.84 0-4.12 1.04-5.08 2h-.24L48 17h-4.64v20.12h4.76Zm40.8 13.08v-3.88c-1.48 1-3.96 1.88-6.28 1.88-3.48 0-4.8-1.64-5-5h11.48v-2.52c0-7-3.08-9.64-7.84-9.64-5.8 0-8.56 4.44-8.56 10.52 0 7 3.44 10.4 9.52 10.4 3.04 0 5.28-.8 6.68-1.76m-7.72-15.4c2.36 0 3.08 1.96 3.08 4.48v.4h-6.64c.12-3.2 1.28-4.88 3.56-4.88m17.32 17.16c4.72 0 7.8-1.96 7.8-6.72 0-3.52-2.44-5.36-6.48-5.92-2-.28-3.68-.52-3.68-2.44 0-1.52 1.2-2.2 3.44-2.2 3.08 0 5.04 1.12 5.36 1.36v-3.88s-1.88-1.12-5.84-1.12c-4.88 0-7.6 2.56-7.6 6.04 0 3.56 2.04 5.4 5.96 5.92 2.76.36 4.24 1.12 4.24 2.88 0 1.56-1.24 2.32-3.96 2.32-3.48 0-5.72-1.8-6.12-2v3.88s2.24 1.88 6.88 1.88"/></svg></svg>