<svg xmlns="http://www.w3.org/2000/svg" viewBox="0 0 211.78666666666666 46.880"><svg xmlns="http://www.w3.org/2000/svg" width="46.92" height="46.88" x="0.000"><path fill="#fff" d="M11.356 8.833h23.975v29.022H11.356z"/><path fill="#fc3f1d" d="M23.48-.12C10.52-.12 0 10.36 0 23.24 0 36.16 10.52 46.6 23.48 46.6c12.92 0 23.44-10.44 23.44-23.36C46.92 10.36 36.4-.12 23.48-.12Zm2.44 37.24h-4.84v-7.96L11.96 9.32H17l7.12 15.52c1.36 2.96 1.8 4 1.8 7.56Zm3.16-14.36h-4.92l5.92-13.44H35Z"/></svg><svg xmlns="http://www.w3.org/2000/svg" fill="none" class="IconSVG IconSVG_type_logo-games" width="46.88" height="46.88" x="49.587"><rect width="46.88" height="46.88" fill="#fff" rx="23.44"/><g clip-path="url(#a)" transform="scale(2.13)"><path fill="#4e1bbc" d="M0 0h22v22H0Z"/><rect width="22" height="22" fill="#4e1bbc" rx="6.53"/><path fill="url(#b)" d="m2.78 8.63.1.27a619.84 619.84 0 0 0-3.14 1.3c-1.4 4.59.48 12.44 1.53 16.13a2.91 2.91 0 0 0 2.72 2.1 3.05 3.05 0 0 0 3.1-2.45l1.79-8.9c.96-.64 2.1-1.33 3.12-1.74 1-.4 2.38-.75 3.62-1l7.5 5.15a3.05 3.05 0 0 0 3.92-.4 2.9 2.9 0 0 0 .5-3.4c-1.81-3.38-5.93-10.33-10.13-12.65l-2.77 1.1-.1-.27L2.77 8.63z"/><g fill-rule="evenodd" clip-rule="evenodd" filter="url(#c)"><path fill="url(#d)" d="M23.34 5.28a6.62 6.62 0 1 0-12.27 4.97 6.62 6.62 0 0 0 12.27-4.97Z"/><path fill="url(#e)" d="M9.32 10.96a6.62 6.62 0 1 1-12.28 4.97 6.62 6.62 0 0 1 12.28-4.97Z"/></g><path fill="url(#f)" fill-rule="evenodd" d="M23.34 5.28a6.62 6.62 0 1 0-12.27 4.97 6.62 6.62 0 0 0 12.27-4.97Z" clip-rule="evenodd"/><path fill="url(#g)" fill-rule="evenodd" d="M9.32 10.96a6.62 6.62 0 1 1-12.28 4.97 6.62 6.62 0 0 1 12.28-4.97Z" clip-rule="evenodd"/><path fill="url(#h)" d="M5.45 11.5a.95.95 0 0 1 .71 1.76l-1.75.71.7 1.75a.95.95 0 1 1-1.75.71l-.7-1.75-1.76.71a.95.95 0 0 1-.71-1.75l1.75-.71-.7-1.76a.95.95 0 0 1 1.75-.7l.7 1.75 1.76-.71z"/><path fill="url(#i)" fill-rule="evenodd" d="M16.7 6.4a1.33 1.33 0 1 0-1-2.46 1.33 1.33 0 0 0 1 2.47zm-1.55 3.66a1.33 1.33 0 1 0-1-2.46 1.33 1.33 0 0 0 1 2.46zm5.94-3.84a1.33 1.33 0 1 1-2.46 1 1.33 1.33 0 0 1 2.46-1zm-2.28 5.4a1.33 1.33 0 1 0-1-2.47 1.33 1.33 0 0 0 1 2.46z" clip-rule="evenodd"/></g><defs><linearGradient id="b" x1="8.46" x2="15.62" y1="6.33" y2="24.01" gradientUnits="userSpaceOnUse"><stop stop-color="#FFD86A"/><stop offset="1" stop-color="#FFB63C"/></linearGradient><linearGradient id="d" x1="7.71" x2="12.68" y1="4.47" y2="16.74" gradientUnits="userSpaceOnUse"><stop stop-color="#FFE37C"/><stop offset="1" stop-color="#FFA919"/></linearGradient><linearGradient id="e" x1="7.71" x2="12.68" y1="4.47" y2="16.74" gradientUnits="userSpaceOnUse"><stop stop-color="#FFE37C"/><stop offset="1" stop-color="#FFA919"/></linearGradient><linearGradient id="f" x1="7.71" x2="12.68" y1="4.47" y2="16.74" gradientUnits="userSpaceOnUse"><stop stop-color="#FFE688"/><stop offset="1" stop-color="#FFBC11"/><stop offset="1" stop-color="#FFA919"/></linearGradient><linearGradient id="g" x1="7.71" x2="12.68" y1="4.47" y2="16.74" gradientUnits="userSpaceOnUse"><stop stop-color="#FFE688"/><stop offset="1" stop-color="#FFBC11"/><stop offset="1" stop-color="#FFA919"/></linearGradient><linearGradient id="h" x1="8.81" x2="12.01" y1="6.57" y2="14.46" gradientUnits="userSpaceOnUse"><stop stop-color="#444"/><stop offset="1" stop-color="#222"/></linearGradient><linearGradient id="i" x1="23.54" x2="27.13" y1=".03" y2="8.9" gradientUnits="userSpaceOnUse"><stop stop-color="#444"/><stop offset="1" stop-color="#222"/></linearGradient><clipPath id="a"><circle cx="11" cy="11" r="11"/></clipPath><filter id="c" width="30.43" height="22.08" x="-5.03" y=".35" color-interpolation-filters="sRGB" filterUnits="userSpaceOnUse"><feFlood flood-opacity="0" result="BackgroundImageFix"/><feColorMatrix in="SourceAlpha" result="hardAlpha" values="0 0 0 0 0 0 0 0 0 0 0 0 0 0 0 0 0 0 127 0"/><feOffset dy=".79"/><feGaussianBlur stdDeviation=".79"/><feColorMatrix values="0 0 0 0 0.758333 0 0 0 0 0.3185 0 0 0 0 0 0 0 0 0.49 0"/><feBlend in2="BackgroundImageFix" mode="multiply" result="effect1_dropShadow_258_94"/><feBlend in="SourceGraphic" in2="effect1_dropShadow_258_94" result="shape"/></filter></defs></svg><svg xmlns="http://www.w3.org/2000/svg" width="107.32" height="46.88" x="104.467"><path d="M11.68 33.76c-3.8 0-5.56-3.56-5.56-10.52 0-7.16 2.12-10.56 7.12-10.56 2.52 0 4.88.88 6.48 1.88v-3.88c-1.36-1-3.84-1.76-6.72-1.76-7.64 0-11.8 5.44-11.8 14.32 0 9.12 3.8 14.28 10.36 14.28 6.36 0 9.72-4.08 9.72-11.12v-4.48h-9.92v3.76h5.08v.84c0 4.44-1.16 7.24-4.76 7.24M39.52 23.4c0-4.88-2.48-6.72-7.52-6.72-3.16 0-5.64 1-7.08 1.84v3.96c1.28-.96 4.08-2 6.52-2 2.28 0 3.32.8 3.32 2.96v1.12H34c-7.28 0-10.52 2.4-10.52 6.48s2.48 6.36 6.16 6.36c2.8 0 4-.92 4.92-1.88h.2c.04.52.2 1.2.36 1.6h4.64a50.64 50.64 0 0 1-.24-4.92Zm-4.76 8.92c-.6.88-1.72 1.6-3.4 1.6-2 0-3-1.12-3-2.84 0-2.28 1.64-3.12 5.72-3.12h.68Zm13.36-9.64c.88-1.08 2.08-2 3.8-2 1.68 0 2.24.72 2.24 2.24v14.2h4.76V22.68c.88-1.08 2.08-2 3.8-2 1.68 0 2.24.72 2.24 2.24v14.2h4.76V22.44c0-4-1.4-5.76-5.28-5.76-3.08 0-4.92 1.2-6.04 2.56-.76-1.76-2.36-2.56-4.96-2.56-2.84 0-4.12 1.04-5.08 2h-.24L48 17h-4.64v20.12h4.76Zm40.8 13.08v-3.88c-1.48 1-3.96 1.88-6.28 1.88-3.48 0-4.8-1.64-5-5h11.48v-2.52c0-7-3.08-9.64-7.84-9.64-5.8 0-8.56 4.44-8.56 10.52 0 7 3.44 10.4 9.52 10.4 3.04 0 5.28-.8 6.68-1.76m-7.72-15.4c2.36 0 3.08 1.96 3.08 4.48v.4h-6.64c.12-3.2 1.28-4.88 3.56-4.88m17.32 17.16c4.72 0 7.8-1.96 7.8-6.72 0-3.52-2.44-5.36-6.48-5.92-2-.28-3.68-.52-3.68-2.44 0-1.52 1.2-2.2 3.44-2.2 3.08 0 5.04 1.12 5.36 1.36v-3.88s-1.88-1.12-5.84-1.12c-4.88 0-7.6 2.56-7.6 6.04 0 3.56 2.04 5.4 5.96 5.92 2.76.36 4.24 1.12 4.24 2.88 0 1.56-1.24 2.32-3.96 2.32-3.48 0-5.72-1.8-6.12-2v3.88s2.24 1.88 6.88 1.88"/></svg></svg>